<svg width="66" height="74" viewBox="0 0 66 74" fill="none" xmlns="http://www.w3.org/2000/svg">
<path opacity="0.4" d="M65.6887 33.7626C65.4667 42.7957 62.356 51.5201 56.813 58.6561C51.27 65.7921 43.5862 70.9642 34.8887 73.4139C33.6598 73.7512 32.3628 73.7512 31.134 73.4139C22.4364 70.9642 14.7527 65.7921 9.20965 58.6561C3.66661 51.5201 0.555984 42.7957 0.333984 33.7626V17.6806C0.413679 16.0798 0.925997 14.5306 1.8164 13.1979C2.70679 11.8652 3.94194 10.7989 5.39032 10.1126L25.821 1.74889C30.4197 -0.139603 35.5773 -0.139603 40.176 1.74889L60.6067 10.1126C62.0592 10.7958 63.2988 11.8608 64.1932 13.1937C65.0876 14.5266 65.6032 16.0774 65.685 17.6806V33.7626H65.6887Z" fill="url(#paint0_linear_221_5209)"/>
<path d="M35.7507 40.1977V49.8337C35.7507 50.5631 35.4609 51.2626 34.9452 51.7783C34.4295 52.294 33.73 52.5837 33.0007 52.5837C32.2713 52.5837 31.5719 52.294 31.0561 51.7783C30.5404 51.2626 30.2507 50.5631 30.2507 49.8337V40.1977C28.1615 39.5407 26.3765 38.1574 25.219 36.2982C24.0615 34.4391 23.6078 32.2269 23.9402 30.0622C24.2725 27.8975 25.3689 25.9233 27.0309 24.497C28.6929 23.0707 30.8106 22.2866 33.0007 22.2866C35.1907 22.2866 37.3085 23.0707 38.9704 24.497C40.6324 25.9233 41.7288 27.8975 42.0612 30.0622C42.3935 32.2269 41.9399 34.4391 40.7823 36.2982C39.6248 38.1574 37.8399 39.5407 35.7507 40.1977Z" fill="url(#paint1_linear_221_5209)"/>
<defs>
<linearGradient id="paint0_linear_221_5209" x1="0.311984" y1="37.0002" x2="65.6887" y2="37.0002" gradientUnits="userSpaceOnUse">
<stop stop-color="#AAAAAA"/>
<stop offset="1"/>
</linearGradient>
<linearGradient id="paint1_linear_221_5209" x1="23.834" y1="37.4587" x2="42.1673" y2="37.4587" gradientUnits="userSpaceOnUse">
<stop stop-color="#A0A0A0"/>
<stop offset="1"/>
</linearGradient>
</defs>
</svg>
