<svg width="18" height="18" viewBox="0 0 18 18" fill="none" xmlns="http://www.w3.org/2000/svg">
<path d="M15.2497 9C15.2497 8.83333 15.2497 8.66667 15.2497 8.58333L17.4163 7L17.333 6.41667C17.333 6.33333 17.1663 5.58333 16.583 4.58333C15.9997 3.58333 15.4997 3.16667 15.4163 3.08333L14.9997 2.75L12.4997 3.83333C12.2497 3.66667 11.9997 3.5 11.7497 3.41667L11.4163 0.666667L10.9163 0.5C10.833 0.5 10.083 0.25 8.99967 0.25C7.91634 0.25 7.16634 0.5 7.08301 0.5L6.58301 0.666667L6.24967 3.41667C5.99967 3.5 5.74967 3.66667 5.49967 3.83333L2.99967 2.75L2.58301 3.08333C2.49967 3.16667 1.99967 3.66667 1.41634 4.66667C0.916341 5.58333 0.666341 6.33333 0.666341 6.41667L0.583008 6.91667L2.74967 8.5C2.74967 8.66667 2.74967 8.83333 2.74967 8.91667C2.74967 9 2.74967 9.25 2.74967 9.33333L0.583008 10.9167L0.666341 11.5833C0.666341 11.6667 0.833008 12.4167 1.41634 13.4167C1.99967 14.3333 2.49967 14.9167 2.58301 14.9167L2.99967 15.25L5.49967 14.1667C5.74967 14.3333 5.99967 14.5 6.24967 14.5833L6.58301 17.3333L7.08301 17.5C7.16634 17.5 7.91634 17.75 8.99967 17.75C10.083 17.75 10.833 17.5 10.9163 17.5L11.4163 17.3333L11.7497 14.6667C11.9997 14.5 12.2497 14.4167 12.4997 14.25L14.9997 15.3333L15.4163 15C15.4997 14.9167 16.083 14.4167 16.583 13.5C17.083 12.5833 17.333 11.8333 17.333 11.6667L17.4163 11.1667L15.2497 9.58333C15.2497 9.33333 15.2497 9.16667 15.2497 9ZM15.4997 11.75C15.4163 12 15.2497 12.25 15.083 12.5833C14.9163 12.9167 14.7497 13.1667 14.583 13.3333L12.2497 12.3333L11.833 12.6667C11.4997 13 11.083 13.1667 10.583 13.3333L10.083 13.5L9.83301 16.0833C9.33301 16.1667 8.49967 16.1667 7.99967 16.0833L7.74967 13.5L7.33301 13.25C6.91634 13.0833 6.49967 12.8333 6.08301 12.5833L5.66634 12.25L3.33301 13.25C3.16634 13.0833 2.99967 12.8333 2.83301 12.5C2.66634 12.1667 2.49967 11.9167 2.41634 11.6667L4.49967 10.1667L4.41634 9.66667C4.41634 9.41667 4.33301 9.16667 4.33301 9C4.33301 8.83333 4.33301 8.5 4.41634 8.33333L4.49967 7.83333L2.49967 6.25C2.58301 6 2.74967 5.75 2.91634 5.41667C3.08301 5.08333 3.24967 4.83333 3.41634 4.66667L5.74967 5.66667L6.16634 5.33333C6.49967 5.16667 6.91634 4.91667 7.33301 4.75L7.83301 4.58333L8.08301 2C8.58301 1.91667 9.41634 1.91667 9.91634 2L10.1663 4.58333L10.6663 4.75C11.083 4.91667 11.4997 5.16667 11.9163 5.41667L12.333 5.75L14.6663 4.75C14.833 4.91667 14.9997 5.16667 15.1663 5.5C15.333 5.83333 15.4997 6.08333 15.583 6.33333L13.4997 7.83333L13.583 8.33333C13.583 8.58333 13.6663 8.83333 13.6663 9C13.6663 9.16667 13.6663 9.5 13.583 9.66667L13.4997 10.1667L15.4997 11.75Z" fill="black"/>
<path d="M8.99967 10.6667C9.92015 10.6667 10.6663 9.92047 10.6663 9C10.6663 8.07952 9.92015 7.33333 8.99967 7.33333C8.0792 7.33333 7.33301 8.07952 7.33301 9C7.33301 9.92047 8.0792 10.6667 8.99967 10.6667Z" fill="black"/>
</svg>
