<svg width="16" height="16" viewBox="0 0 16 16" fill="none" xmlns="http://www.w3.org/2000/svg">
<path d="M6.50705 9.57811C6.12371 9.19545 5.89038 8.67545 5.89038 8.09211C5.89038 6.92345 6.83171 5.98145 7.99971 5.98145C8.57771 5.98145 9.10971 6.21545 9.48638 6.59811" stroke="#99A2AD" stroke-linecap="round" stroke-linejoin="round"/>
<path d="M10.0698 8.46582C9.91509 9.32582 9.23775 10.0045 8.37842 10.1605" stroke="#99A2AD" stroke-linecap="round" stroke-linejoin="round"/>
<path d="M4.43634 11.648C3.37834 10.8173 2.48234 9.60399 1.83301 8.09132C2.48901 6.57199 3.39101 5.35199 4.45567 4.51466C5.51367 3.67732 6.73434 3.22266 7.99967 3.22266C9.27234 3.22266 10.4923 3.68399 11.557 4.52732" stroke="#99A2AD" stroke-linecap="round" stroke-linejoin="round"/>
<path d="M12.965 5.99414C13.4236 6.60347 13.827 7.30681 14.1663 8.09147C12.855 11.1295 10.5376 12.9595 7.99965 12.9595C7.42431 12.9595 6.85698 12.8661 6.31165 12.6841" stroke="#99A2AD" stroke-linecap="round" stroke-linejoin="round"/>
<path d="M13.2579 2.83301L2.74194 13.349" stroke="#99A2AD" stroke-linecap="round" stroke-linejoin="round"/>
</svg>
