<svg width="89" height="88" viewBox="0 0 89 88" fill="none" xmlns="http://www.w3.org/2000/svg">
<path opacity="0.4" d="M77.1883 40.7621C76.9663 49.7953 73.8557 58.5196 68.3126 65.6556C62.7696 72.7916 55.0858 77.9638 46.3883 80.4134C45.1595 80.7508 43.8624 80.7508 42.6336 80.4134C33.9361 77.9638 26.2523 72.7916 20.7093 65.6556C15.1662 58.5196 12.0556 49.7953 11.8336 40.7621V24.6801C11.9133 23.0793 12.4256 21.5301 13.316 20.1974C14.2064 18.8647 15.4416 17.7984 16.89 17.1121L37.3206 8.7484C41.9193 6.85991 47.077 6.85991 51.6756 8.7484L72.1063 17.1121C73.5588 17.7954 74.7984 18.8603 75.6929 20.1932C76.5873 21.5261 77.1029 23.077 77.1846 24.6801V40.7621H77.1883Z" fill="url(#paint0_linear_10342_13775)"/>
<path d="M47.2499 47.1972V56.8332C47.2499 57.5626 46.9602 58.2621 46.4445 58.7778C45.9288 59.2935 45.2293 59.5832 44.4999 59.5832C43.7706 59.5832 43.0711 59.2935 42.5554 58.7778C42.0397 58.2621 41.7499 57.5626 41.7499 56.8332V47.1972C39.6607 46.5402 37.8758 45.1569 36.7183 43.2977C35.5607 41.4386 35.1071 39.2264 35.4394 37.0617C35.7718 34.897 36.8682 32.9228 38.5302 31.4965C40.1922 30.0702 42.3099 29.2861 44.4999 29.2861C46.69 29.2861 48.8077 30.0702 50.4697 31.4965C52.1317 32.9228 53.2281 34.897 53.5604 37.0617C53.8928 39.2264 53.4391 41.4386 52.2816 43.2977C51.1241 45.1569 49.3391 46.5402 47.2499 47.1972Z" fill="url(#paint1_radial_10342_13775)"/>
<defs>
<linearGradient id="paint0_linear_10342_13775" x1="11.8116" y1="43.9997" x2="77.1883" y2="43.9997" gradientUnits="userSpaceOnUse">
<stop stop-color="#AAAAAA"/>
<stop offset="1"/>
</linearGradient>
<radialGradient id="paint1_radial_10342_13775" cx="0" cy="0" r="1" gradientUnits="userSpaceOnUse" gradientTransform="translate(44 45) rotate(90) scale(18.5 18.5)">
<stop stop-color="#A0A0A0"/>
<stop offset="1"/>
</radialGradient>
</defs>
</svg>
