<svg width="28" height="28" viewBox="0 0 28 28" fill="none" xmlns="http://www.w3.org/2000/svg">
<path fill-rule="evenodd" clip-rule="evenodd" d="M14.3379 26.2727C21.1159 26.2727 26.6106 20.778 26.6106 14C26.6106 7.22196 21.1159 1.72727 14.3379 1.72727C7.55985 1.72727 2.06516 7.22196 2.06516 14C2.06516 20.778 7.55985 26.2727 14.3379 26.2727ZM14.3379 27.5C21.7937 27.5 27.8379 21.4558 27.8379 14C27.8379 6.54416 21.7937 0.5 14.3379 0.5C6.88205 0.5 0.837891 6.54416 0.837891 14C0.837891 21.4558 6.88205 27.5 14.3379 27.5Z" fill="#737375"/>
<path d="M23.3751 14C23.3751 18.9911 19.329 23.0372 14.3379 23.0372C9.34679 23.0372 5.3007 18.9911 5.3007 14C5.3007 9.0089 9.34679 4.96281 14.3379 4.96281C19.329 4.96281 23.3751 9.0089 23.3751 14Z" fill="#737375"/>
</svg>
