<svg width="17" height="18" viewBox="0 0 17 18" fill="none" xmlns="http://www.w3.org/2000/svg">
<path d="M3.28783 13.7158L2.10979 14.8947C3.66177 16.4455 5.76166 17.3332 8 17.3332C12.6024 17.3332 16.3333 13.6022 16.3333 8.99984C16.3333 4.39746 12.6024 0.666504 8 0.666504C5.76106 0.666504 3.66065 1.55466 2.10856 3.10616L3.28685 4.2849C4.52949 3.04273 6.20752 2.33317 8 2.33317C11.6819 2.33317 14.6667 5.31794 14.6667 8.99984C14.6667 12.6817 11.6819 15.6665 8 15.6665C6.208 15.6665 4.53039 14.9573 3.28783 13.7158Z" fill="black"/>
<path d="M7.41074 6.25576L8.58926 5.07725L11.9226 8.41058C12.248 8.73602 12.248 9.26366 11.9226 9.58909L8.58926 12.9224L7.41074 11.7439L9.32149 9.83317H0.5V8.1665H9.32149L7.41074 6.25576Z" fill="black"/>
</svg>
