<svg width="89" height="88" viewBox="0 0 89 88" fill="none" xmlns="http://www.w3.org/2000/svg">
<path opacity="0.6" fill-rule="evenodd" clip-rule="evenodd" d="M78.4118 36.5407L75.6884 33.8171C74.4454 32.5703 73.7636 30.9105 73.7636 29.1533V25.257C73.7636 19.4555 69.0413 14.7371 63.2437 14.7371H59.3396C57.5746 14.7371 55.9187 14.0552 54.6797 12.8162L51.9094 10.0499C47.791 5.96656 41.1206 5.98604 37.0334 10.0927L34.3177 12.8162C33.0669 14.0591 31.411 14.741 29.6499 14.741H25.7497C20.0183 14.7449 15.3428 19.358 15.2376 25.07C15.2337 25.1323 15.2298 25.1947 15.2298 25.2609V29.1455C15.2298 30.9066 14.548 32.5625 13.3051 33.8054L10.5465 36.568C10.5426 36.5797 10.5309 36.5836 10.5231 36.5914C6.45151 40.7136 6.48658 47.3841 10.5894 51.4479L13.3128 54.1792C14.5519 55.4221 15.2376 57.0741 15.2376 58.8352V62.751C15.2376 68.5486 19.9521 73.267 25.7497 73.267H29.6421C31.4071 73.2709 33.0631 73.9527 34.3021 75.1879L37.0802 77.9581C39.0595 79.9257 41.6856 81.0089 44.4792 81.0089H44.526C47.3352 80.9972 49.9691 79.8907 51.9406 77.9075L54.6719 75.1801C55.8992 73.9566 57.598 73.2553 59.3318 73.2553H63.2515C69.0374 73.2553 73.7558 68.5447 73.7675 62.751V58.843C73.7675 57.0858 74.4493 55.4299 75.6845 54.187L78.4547 51.4167C82.5458 47.3022 82.5224 40.6279 78.4118 36.5407Z" fill="url(#paint0_linear_10471_15441)"/>
<g filter="url(#filter0_i_10471_15441)">
<path fill-rule="evenodd" clip-rule="evenodd" d="M58.463 38.3818L42.5935 54.2591C42.0441 54.8085 41.3 55.1163 40.5246 55.1163C39.7492 55.1163 39.0051 54.8085 38.4596 54.2591L30.7565 46.5445C29.6188 45.399 29.6188 43.5482 30.7604 42.4066C31.9059 41.2689 33.7527 41.2728 34.8943 42.4105L40.5285 48.0562L54.3291 34.2478C55.4707 33.1062 57.3214 33.1062 58.463 34.2478C59.6046 35.3894 59.6046 37.2402 58.463 38.3818Z" fill="#00E89F"/>
</g>
<defs>
<filter id="filter0_i_10471_15441" x="29.9037" y="33.3916" width="30.4155" height="22.7246" filterUnits="userSpaceOnUse" color-interpolation-filters="sRGB">
<feFlood flood-opacity="0" result="BackgroundImageFix"/>
<feBlend mode="normal" in="SourceGraphic" in2="BackgroundImageFix" result="shape"/>
<feColorMatrix in="SourceAlpha" type="matrix" values="0 0 0 0 0 0 0 0 0 0 0 0 0 0 0 0 0 0 127 0" result="hardAlpha"/>
<feOffset dx="1" dy="1"/>
<feGaussianBlur stdDeviation="1.5"/>
<feComposite in2="hardAlpha" operator="arithmetic" k2="-1" k3="1"/>
<feColorMatrix type="matrix" values="0 0 0 0 0 0 0 0 0 0 0 0 0 0 0 0 0 0 0.32 0"/>
<feBlend mode="normal" in2="shape" result="effect1_innerShadow_10471_15441"/>
</filter>
<linearGradient id="paint0_linear_10471_15441" x1="7" y1="7" x2="82" y2="81" gradientUnits="userSpaceOnUse">
<stop stop-color="#00E89F"/>
<stop offset="1" stop-color="#006C4A"/>
</linearGradient>
</defs>
</svg>
